<svg width="37" height="58" viewBox="0 0 37 58" fill="none" xmlns="http://www.w3.org/2000/svg">
<path d="M16.5 52.8709C18.7687 52.8709 20.625 50.9846 20.625 48.6792H12.375C12.375 50.9846 14.2312 52.8709 16.5 52.8709Z" fill="#FFC845"/>
<path d="M28.875 40.295V29.8153C28.875 23.3809 25.5131 17.9943 19.5938 16.5691V15.1439C19.5938 13.4043 18.2119 12 16.5 12C14.7881 12 13.4062 13.4043 13.4062 15.1439V16.5691C7.5075 17.9943 4.125 23.3599 4.125 29.8153V40.295L0 44.4868V46.5827H33V44.4868L31.1268 42.5833L28.875 40.295Z" fill="#FFC845"/>
<path d="M16.5 52.6212C18.7688 52.6212 20.625 50.7605 20.625 48.4863H12.375C12.375 50.7605 14.2312 52.6212 16.5 52.6212Z" fill="#BE3A34"/>
<path d="M28.875 40.2225V29.8849C28.875 23.5376 25.5131 18.2241 19.5938 16.8182V15.4123C19.5938 13.6963 18.2119 12.311 16.5 12.311C14.7881 12.311 13.4062 13.6963 13.4062 15.4123V16.8182C7.5075 18.2241 4.125 23.517 4.125 29.8849V40.2225L0 44.3575V46.425H33V44.3575L31.1268 42.4797L28.875 40.2225Z" fill="#BE3A34"/>
<path d="M17.5812 35.7373H15.4367L14.9885 27.1504H18.0295L17.5812 35.7373ZM14.9533 38.7432C14.9533 38.1924 15.1027 37.8057 15.4016 37.583C15.7062 37.3604 16.0725 37.249 16.5002 37.249C16.9162 37.249 17.2736 37.3604 17.5725 37.583C17.8771 37.8057 18.0295 38.1924 18.0295 38.7432C18.0295 39.2705 17.8771 39.6514 17.5725 39.8857C17.2736 40.1201 16.9162 40.2373 16.5002 40.2373C16.0725 40.2373 15.7062 40.1201 15.4016 39.8857C15.1027 39.6514 14.9533 39.2705 14.9533 38.7432Z" fill="white"/>
</svg>
